<?xml version="1.0" encoding="UTF-8" standalone="no"?>
<!-- Created with Inkscape (http://www.inkscape.org/) -->

<svg
   version="1.1"
   id="svg2"
   width="468"
   height="421.33334"
   viewBox="0 0 468 421.33334"
   sodipodi:docname="kkk.svg"
   inkscape:version="1.1.2 (0a00cf5339, 2022-02-04)"
   xmlns:inkscape="http://www.inkscape.org/namespaces/inkscape"
   xmlns:sodipodi="http://sodipodi.sourceforge.net/DTD/sodipodi-0.dtd"
   xmlns="http://www.w3.org/2000/svg"
   xmlns:svg="http://www.w3.org/2000/svg">
  <defs
     id="defs6" />
  <sodipodi:namedview
     id="namedview4"
     pagecolor="#ffffff"
     bordercolor="#cccccc"
     borderopacity="1"
     inkscape:pageshadow="0"
     inkscape:pageopacity="1"
     inkscape:pagecheckerboard="0"
     showgrid="false"
     inkscape:zoom="0.25616204"
     inkscape:cx="-659.73866"
     inkscape:cy="-669.49811"
     inkscape:window-width="1850"
     inkscape:window-height="1016"
     inkscape:window-x="0"
     inkscape:window-y="0"
     inkscape:window-maximized="1"
     inkscape:current-layer="g8" />
  <g
     inkscape:groupmode="layer"
     inkscape:label="Image"
     id="g8">
    <path
       style="fill:#a6d4b5;fill-opacity:1;stroke-width:1.33333"
       d="m -938.24416,164.24333 c -11.96746,-1.13956 -25.90172,-7.73248 -36.65376,-17.34258 -10.00101,-8.93882 -14.98362,-9.1756 -27.44708,-1.30424 -15.0366,9.49651 -15.3906,9.55564 -55.6362,9.29339 -23.8661,-0.15552 -36.5582,-0.72775 -37.731,-1.70113 -0.9721,-0.80674 -1.5884,-2.7193 -1.3697,-4.25012 0.3695,-2.58616 1.3659,-2.81027 14.0643,-3.16332 7.5167,-0.20899 13.6667,-0.6576 13.6667,-0.99691 0,-0.33932 -2.127,-2.86832 -4.7267,-5.62003 -10.6654,-11.28913 -15.707,-29.19747 -12.8727,-45.725804 5.1663,-30.12731 30.8587,-48.90389 63.2057,-46.19204 21.2446,1.78108 38.5607,16.47356 43.75314,37.12392 1.52792,6.07651 1.68438,6.21897 7.32309,6.66744 5.44627,0.43316 6.31787,-0.0268 15.91544,-8.39968 12.29597,-10.72687 25.25771,-17.76545 38.0252,-20.64872 8.22791,-1.85809 11.79035,-1.93916 26.09812,-0.59393 22.31643,2.0982 38.85341,4.65606 61.94537,9.5814 15.25976,3.25478 24.10924,4.30562 42,4.98732 l 22.66667,0.86366 v 4 4 l -21.84092,0.3672 c -20.49132,0.34451 -23.21017,0.0833 -44,-4.22777 -35.66833,-7.39628 -49.96952,-9.3114 -70.15908,-9.39524 l -18.66667,-0.0775 -10.225,5.10535 c -6.7053,3.34795 -13.94065,8.55724 -21.01924,15.13339 l -10.79422,10.028054 -9.64743,-0.96461 c -14.20207,-1.420004 -15.29727,-2.056674 -16.42028,-9.545434 -1.3738,-9.16113 -3.91187,-14.44599 -10.22913,-21.2994 -8.91436,-9.67099 -15.82676,-12.4574 -30.90366,-12.4574 -16.9397,0 -25.5253,3.14819 -34.9712,12.82327 -20.8451,21.35081 -16.017,57.796924 9.379,70.800794 5.1751,2.64984 9.4171,3.63956 17.4978,4.08245 13.2918,0.72852 19.5119,-0.9146 30.0161,-7.92901 8.24942,-5.50876 14.86586,-7.6096 24.31173,-7.71943 4.30449,-0.05 6.24975,1.09317 14.08088,8.27527 4.99752,4.58333 12.65001,10.13333 17.00553,12.33333 l 7.91912,4 73.92746,0.38707 c 54.39204,0.2848 74.92748,-0.0272 77.71185,-1.18048 9.13684,-3.7846 11.86149,-14.0344 5.36069,-20.16624 -5.59241,-5.27502 -12.18953,-6.35816 -38.77492,-6.36624 -19.0208,-0.005 -31.73653,-0.90139 -57.33333,-4.03811 -18.09047,-2.21688 -34.24175,-4.60402 -35.89175,-5.30475 -1.65,-0.70075 -3,-2.41348 -3,-3.80608 0,-5.66212 2.04774,-5.70697 39.45955,-0.86443 29.55231,3.82522 40.22041,4.64734 60.54045,4.66546 13.56667,0.012 26.83724,0.62493 29.49018,1.36184 12.16292,3.37852 20.73576,14.38795 19.19085,24.64529 -1.07228,7.11939 -6.13188,14.14551 -13.03268,18.09811 l -5.64835,3.23523 -68,0.16582 c -37.4,0.0912 -72.30196,-0.2438 -77.55992,-0.74446 z m 3.04096,-125.815154 c -1.93589,-1.41556 -2.17324,-4.2728 -1.85085,-22.281666 l 0.36981,-20.6578804 h 4 4 l 0.36687,20.9351504 c 0.33929,19.362456 0.17785,21.036286 -2.14915,22.281656 -1.76989,0.94722 -3.17454,0.865 -4.73668,-0.27726 z m -38.51546,-9.11886 c -1.2644,-0.7076 -2.2486,-2.30672 -2.18711,-3.55361 0.0615,-1.24689 5.91149,-13.367076 13,-26.9337464 10.13512,-19.3975596 13.50977,-24.7551596 15.79799,-25.0808996 1.85261,-0.26375 3.43776,0.57226 4.36297,2.30106 1.41748,2.64858 -2.67452,11.52796 -21.45965,46.566156 -3.5636,6.64687 -6.24116,8.53272 -9.5142,6.70104 z m 75.94873,-0.20569 c -2.06847,-1.5752 -25.32212,-43.931806 -26.97161,-49.128876 -1.00731,-3.17373 1.47874,-6.48612 4.86804,-6.48612 1.70993,0 3.79469,2.59735 6.68874,8.33333 2.3125,4.58334 8.32114,15.6803596 13.35252,24.6600696 5.0314,8.9797104 9.148,17.5085964 9.148,18.9530864 0,3.56631 -4.29792,5.7915 -7.08569,3.66851 z m -62.33855,-70.705196 c -7.40866,-3.9178 -11.67073,-11.803571 -12.19952,-22.571801 -0.3323,-6.76745 -0.70237,-7.66255 -3.16958,-7.66667 -1.53635,-0.003 -3.90272,-1.2305 -5.25862,-2.72875 -2.07902,-2.2973 -2.85092,-7.67634 -4.92684,-34.333339 l -2.46157,-31.60923 2.86789,-2.33334 c 2.61735,-2.12948 7.22324,-2.33333 52.72019,-2.33333 48.20009,0 49.94135,0.0891 52.53927,2.68697 1.67918,1.67919 2.4514,3.80455 2.05889,5.66667 -0.34544,1.63883 -1.60363,14.97969 -2.79597,29.64635 -2.44788,30.110579 -3.36524,33.816399 -8.63179,34.869709 -3.3396,0.66793 -3.69893,1.36336 -4.45829,8.62849 -0.94375,9.02928 -3.01472,13.64799 -8.40744,18.750311 -5.93431,5.61475 -9.8978,6.41816 -31.6628,6.41816 -18.73098,0 -20.84039,-0.24867 -26.21382,-3.0902 z m 49.4981,-8.949321 c 3.8409,-2.0556 6.59281,-8.41175 6.59281,-15.2276 v -6.06621 h -29.33333 -29.33334 l 0.008,4.33333 c 0.012,6.89061 2.5162,14.08195 5.67439,16.29403 2.30584,1.61506 7.16728,2.0393 23.36917,2.0393 11.4813,0 21.5832,-0.60237 23.02286,-1.37285 z m 17.80718,-37.62715 c 0.39111,-3.11666 1.34548,-13.166659 2.12083,-22.333329 0.77535,-9.16667 1.67711,-18.31666 2.00392,-20.33333 l 0.59421,-3.66666 h -44.63333 c -41.62947,0 -44.63149,0.15703 -44.606,2.33333 0.0151,1.28333 0.90712,12.53332 1.9824,24.99999 1.07528,12.466669 1.96299,23.116669 1.97267,23.666669 0.009,0.55 17.98084,1 39.9359,1 h 39.9183 z"
       id="path845"
       inkscape:export-filename="/home/maritza88/Documents/development/korektiva2.0/src/assets/images/pattern.png"
       inkscape:export-xdpi="300"
       inkscape:export-ydpi="300" />
    <path
       style="fill:#a6d4b5;fill-opacity:1;stroke-width:1.33333"
       d="m -1356.3013,-6.9102046 c -6.0924,-4.2672604 -12.2937,-18.4034004 -14.3399,-32.6882004 -1.9365,-13.51924 5.4029,-34.0994 15.3731,-43.10686 2.9284,-2.64557 6.1638,-4.81014 7.19,-4.81014 1.4479,0 4.7933,-6.187586 4.7933,-8.865626 0,-0.25724 -1.8193,-0.46771 -4.0429,-0.46771 -10.015,0 -18.6461,-7.355479 -18.5945,-15.846479 0.034,-5.65437 3.7949,-14.48033 7.617,-17.87718 3.7709,-3.35127 11.518,-4.31232 17.8681,-2.21659 4.5621,1.50563 5.5357,1.48398 6.5671,-0.14602 2.7971,-4.42032 1.4869,-5.95166 -4.6728,-5.46175 -12.9128,1.027 -20.727,-5.31428 -20.7371,-16.82815 -0.01,-7.39472 2.708,-13.74488 7.5002,-17.54594 3.3593,-2.6646 4.8434,-2.94362 12.1173,-2.27816 l 8.2892,0.75834 -0.814,-4.27904 c -0.4477,-2.35346 -0.9486,-4.44985 -1.1132,-4.65862 -0.1645,-0.20878 -2.9284,0.22656 -6.1418,0.9674 -13.6578,3.14874 -19.6579,1.03717 -23.9576,-8.43115 -3.8543,-8.48747 -3.3774,-17.19051 1.2243,-22.34069 3.1975,-3.57864 4.9338,-4.32212 11.3333,-4.85282 8.7394,-0.72473 9.3541,-2.20942 4.9406,-11.93194 l -2.5582,-5.63546 -5.5802,1.96879 c -12.0041,4.23529 -19.2286,1.33741 -23.3102,-9.35012 -6.215,-16.27387 -0.1605,-25.97771 16.2265,-26.00699 l 4.1612,-0.008 -1.0664,-5.66666 c -1.8469,-9.81365 -2.1439,-10.1571 -7.671,-8.87297 -13.6852,3.17953 -20.1314,-0.70255 -22.8412,-13.75577 -1.274,-6.13659 -1.2017,-8.28985 0.4076,-12.14141 2.4959,-5.9728 5.5741,-7.56263 14.6438,-7.56263 h 7.3038 l 0.9162,-5.42318 c 0.504,-2.98274 0.5314,-5.80809 0.061,-6.27854 -0.4704,-0.47045 -4.441,-0.71376 -8.8235,-0.54069 -6.936,0.27392 -8.3967,-0.11391 -11.277,-2.99418 -2.7367,-2.73667 -3.3089,-4.60262 -3.3089,-10.79046 0,-4.11487 0.6071,-8.61589 1.349,-10.00226 1.5361,-2.87015 8.962,-5.28562 16.2834,-5.29658 4.1619,-0.006 5.2996,-0.65291 7.0278,-3.99488 3.5351,-6.83622 6.1799,-7.57428 26.5029,-7.39608 17.639,0.15467 18.6126,0.30553 21,3.2539 3.1209,3.85414 3.3822,15.44561 0.5036,22.33528 -2.2407,5.3627 -2.6529,13.23347 -0.7545,14.40675 0.685,0.42338 0.9304,2.71148 0.5453,5.08466 -0.8204,5.05565 2.5883,19.20543 6.4502,26.77543 1.8195,3.56648 2.4687,6.74532 1.9857,9.72221 -0.3948,2.4327 -0.2059,4.73949 0.4198,5.12619 0.6257,0.3867 1.8034,3.84769 2.6171,7.6911 0.8137,3.8434 4.1623,11.62421 7.4413,17.29071 3.2789,5.66648 5.9617,11.79537 5.9617,13.61974 0,1.90634 1.0887,3.89972 2.5599,4.68707 2.9995,1.60527 4.9017,7.16612 5.9654,17.43856 0.4204,4.05977 2.9383,12.39812 5.5954,18.52965 3.4222,7.89699 4.6338,12.36468 4.1543,15.31932 -0.3944,2.43024 0.076,5.20083 1.1273,6.63839 1.3048,1.78437 1.8427,7.86427 1.9436,21.96593 0.077,10.72424 0.2374,22.11614 0.357,25.3153 0.1681,4.4931 -0.4286,6.33992 -2.6222,8.1162 -1.9675,1.59317 -2.4735,2.87818 -1.6473,4.18334 2.5328,4.00123 1.3133,11.95373 -2.7356,17.83857 -2.4322,3.53507 -5.4886,11.359555 -7.8938,20.208665 -4.1014,15.08907 -6.813,19.16989 -12.7377,19.16989 -1.8594,0 -3.5285,1.22231 -4.4596,3.26599 -1.0134,2.22409 -3.3076,3.75592 -7.1917,4.8018 -13.3779,3.60229 -24.3049,11.86348 -28.2714,21.37427 -1.0954,2.62646 -2.4031,9.52646 -2.9059,15.33333 -0.5538,6.3954 -1.7166,11.4778804 -2.9493,12.8912804 -2.5189,2.88816 -9.3697,3.02815 -13.3049,0.27187 z m 6.6375,-18.9385404 c 0.7526,-10.4835 4.1263,-17.94902 11.944,-26.43026 5.3146,-5.76563 19.3047,-13.90307 23.9026,-13.90307 6.6752,0 2.2259,-2.91576 -11.8163,-7.7436 -18.0231,-6.19653 -19.3252,-6.02644 -26.5562,3.46911 -8.0518,10.57333 -10.3967,25.12252 -6.2908,39.03249 2.1978,7.44588 5.7705,14.57533 7.304,14.57533 0.4767,0 1.1574,-4.05 1.5127,-9 z m 54.9775,-60.66666 c 3.0954,-12.233956 5.2994,-17.708235 9.6872,-24.061655 2.9848,-4.32182 3.2194,-5.30988 1.605,-6.75992 -1.0399,-0.93404 -10.7465,-3.37994 -21.5701,-5.43533 l -19.6794,-3.73708 -2.8474,3.61993 c -3.0793,3.91466 -4.3106,3.96404 -16.0239,0.64274 -7.4828,-2.12173 -9.9074,-0.77894 -11.2191,6.21324 -1.1828,6.30498 0.7639,7.99689 10.3546,8.99932 12.4892,1.30537 14.5776,4.34285 11.5706,16.828515 -0.3497,1.45166 3.7721,3.46312 15.524,7.57584 8.8,3.07968 16.9343,5.64029 18.0763,5.69024 1.4862,0.0651 2.7714,-2.65639 4.5222,-9.57584 z m 14.567,-54.666675 c -0.6029,-4.58333 -1.1118,-14.63333 -1.1309,-22.33333 l -0.035,-14 -4,0.20444 c -2.2,0.1124 -11.35,0.65388 -20.3333,1.2032 l -16.3333,0.99877 v 4.02513 c 0,4.79863 -3.3318,8.90738 -7.2067,8.88736 -1.5363,-0.008 -5.6318,-0.87578 -9.1011,-1.92854 -6.0501,-1.8359 -6.3906,-1.79595 -8.3334,0.97777 -1.114,1.59053 -2.0255,5.11795 -2.0255,7.83869 0,6.16939 1.9778,6.95196 14.4611,5.72188 8.6098,-0.84838 9.3055,-0.71276 11.3553,2.21378 1.201,1.71465 2.1836,4.44149 2.1836,6.05966 0,2.47704 1.1066,3.17032 7,4.38568 10.1977,2.103 22.163,3.73019 28.7976,3.91626 l 5.7976,0.16258 z m -19.5283,-46.82607 c 8.2338,-0.91881 15.2821,-1.98212 15.6628,-2.3629 0.3808,-0.38078 -1.4008,-5.52242 -3.9591,-11.42586 -2.8521,-6.58144 -5.0492,-14.2766 -5.6799,-19.89269 -1.2064,-10.74344 -0.1915,-10.45245 -18.9944,-5.44628 -6.9666,1.85484 -14.3166,3.73968 -16.3333,4.18852 -3.1817,0.70815 -3.6667,1.46012 -3.6667,5.68569 0,7.51339 -2.9119,9.74626 -12.71,9.74626 -10.3975,0 -12.0537,1.5456 -9.9656,9.30022 0.8151,3.02707 2.4079,5.85904 3.5394,6.29326 1.1316,0.43422 6.4766,-0.31098 11.8779,-1.65598 9.5018,-2.36612 9.9075,-2.36662 12.5053,-0.0156 1.4767,1.3364 3.0407,3.5507 3.4755,4.92064 0.9399,2.9615 3.1287,3.0215 24.2481,0.66476 z m -18.5788,-50.03316 c 9.0154,-2.09722 16.6235,-4.04494 16.9068,-4.32825 0.2833,-0.28331 -1.5494,-3.78941 -4.0727,-7.79132 -5.255,-8.33449 -9.8925,-19.93135 -9.8925,-24.73788 0,-4.1433 -1.8762,-4.16389 -18.6667,-0.20477 l -12.6667,2.98672 -0.7713,5.74737 c -0.4243,3.16105 -1.6243,6.28719 -2.6667,6.94695 -1.0424,0.65977 -5.6641,1.20877 -10.2705,1.22 -6.3789,0.0156 -8.5672,0.52098 -9.181,2.1205 -1.1498,2.9961 1.9862,12.55946 4.4253,13.49542 1.1292,0.43333 5.9913,-0.16831 10.8046,-1.33698 10.2714,-2.4939 12.9505,-1.61466 15.7904,5.18212 1.0478,2.50764 2.347,4.54898 2.8871,4.53631 0.5402,-0.0133 8.3584,-1.73896 17.3739,-3.83619 z m -15.7251,-48.23772 c 19.1351,-3.77881 17.8564,-2.98397 14.713,-9.14545 -1.4857,-2.91225 -3.6964,-9.82408 -4.9128,-15.35963 l -2.2115,-10.06464 -13.461,0.0204 c -7.4036,0.0112 -14.1187,0.46123 -14.9224,1 -0.8038,0.53877 -1.902,2.77622 -2.4405,4.97212 -1.6017,6.53078 -3.0282,7.3408 -12.9281,7.3408 h -9.17 v 5.74516 c 0,9.32325 1.6512,10.46811 12.4027,8.59923 10.5068,-1.82633 12.9475,-0.93439 14.873,5.4354 0.7016,2.32111 1.9016,4.22045 2.6667,4.22076 0.765,3e-4 7.6909,-1.24358 15.3909,-2.76417 z m 6.7252,-48.90305 c 0.032,-2.75 0.9231,-7.4 1.9799,-10.33333 1.0568,-2.93334 1.9304,-7.48854 1.9415,-10.12267 l 0.02,-4.78933 -15.6781,0.11869 -15.678,0.1187 -2.6553,5.33731 -2.6553,5.3373 -9.3333,0.66666 -9.3334,0.66667 -0.4255,5.19664 -0.4255,5.19664 6.4255,-0.75167 c 9.6895,-1.1335 13.8907,0.094 15.5726,4.54978 l 1.4376,3.80861 h 14.3743 14.3744 z"
       id="path1003"
       sodipodi:nodetypes="sssssscsssscsscssssssscssccssssscsssssssssssssssssssssssscsssssssssssssssssssssssscsssssssssccsscsssssssssscssssssssssssssssssssscssssssscsssscsssscsssssscsscccccccccsscccc"
       inkscape:export-filename="/home/maritza88/Documents/development/korektiva2.0/src/assets/images/pattern.png"
       inkscape:export-xdpi="300"
       inkscape:export-ydpi="300" />
    <path
       style="fill:#a6d4b5;stroke-width:1.33333;fill-opacity:1"
       d="m -218.56153,-501.53514 c -0.78265,-1.4624 -1.42301,-7.79836 -1.42301,-14.07991 v -11.42099 h -139.2833 -139.2833 l -0.38337,12.19212 c -0.31103,9.8916 -0.82364,12.46907 -2.7167,13.65986 -1.69799,1.06806 -2.96868,1.06806 -4.66667,0 -1.89306,-1.19079 -2.40567,-3.76826 -2.7167,-13.65986 l -0.38337,-12.19212 h -9.71755 c -8.43367,0 -10.10056,-0.4077 -12.61663,-3.08593 -2.68381,-2.85679 -2.89908,-4.43536 -2.89908,-21.25899 0,-17.28383 0.15733,-18.35609 3.21545,-21.91406 3.08901,-3.59392 3.77056,-3.75889 17.33333,-4.19571 l 14.11788,-0.4547 0.005,-31.5453 c 0.005,-29.17624 0.20492,-31.87324 2.66728,-35.91188 2.95011,-4.83863 8.32558,-7.50737 12.83959,-6.37443 8.33615,2.09224 18.23581,17.17895 20.00095,30.48068 0.64179,4.83646 1.32248,6.2251 2.77771,5.66667 1.06022,-0.40683 3.37856,-0.73968 5.15192,-0.73968 h 3.22428 l 0.005,-35.66667 c 0.007,-50.69793 3.36198,-83.29892 9.88783,-96.0669 7.13098,-13.95196 23.83665,-24.15447 43.12369,-26.33655 7.60596,-0.86052 8.09061,-1.13 8.84864,-4.92013 0.44107,-2.20537 0.80648,-10.98475 0.81201,-19.50976 0.022,-33.77658 6.03075,-48.03902 24.36034,-57.82142 4.71457,-2.5162 7.68842,-3.0018 18.29626,-2.9875 10.55159,0.014 13.71672,0.5354 18.95514,3.122 9.3768,4.63 17.78348,12.7056 21.82429,20.96471 3.22437,6.59037 3.51548,8.34165 2.81793,16.95258 -2.16082,26.67478 -13.48309,50.01397 -26.45668,54.5366 l -3.56188,1.24167 5.74822,5.74821 c 8.45381,8.45381 14.56565,22.431 20.20836,46.21459 2.67873,11.29072 5.0317,20.73114 5.2288,20.97873 0.1971,0.24759 5.02861,-1.16179 10.73669,-3.13195 18.57256,-6.41038 34.23732,-3.47137 39.90399,7.48676 4.17073,8.06531 4.91889,17.74526 2.60009,33.64078 -1.75872,12.05612 -6.56225,36.99361 -8.8711,46.05425 -0.25695,1.00833 0.28282,2.10834 1.19949,2.44444 1.11903,0.41032 1.67629,-0.84925 1.69595,-3.83333 0.10546,-16.00906 19.49877,-30.80175 37.57464,-28.66094 7.99096,0.94642 18.99288,6.76212 23.18182,12.2541 9.58118,12.56158 9.75809,32.82493 0.37378,42.81407 l -2.71318,2.88806 4.07412,0.89483 c 2.24076,0.49215 5.59033,2.69675 7.44349,4.89909 3.22456,3.83219 3.36937,4.74746 3.36937,21.29592 0,16.58124 -0.13445,17.42609 -3.27273,20.56436 -2.89373,2.89375 -4.43235,3.27273 -13.28668,3.27273 h -10.01395 l -0.37999,13.66667 -0.37997,13.66667 -3.57699,0.41324 c -2.48811,0.28745 -4.01017,-0.39618 -5,-2.24568 z m 25.24365,-50.83423 v -14.66666 h -29.20162 -29.20164 l -2.79738,4.74119 c -1.80801,3.06436 -4.90393,5.67303 -8.75353,7.3759 -5.66839,2.5074 -8.62704,2.61653 -61.23817,2.2588 -53.62302,-0.36462 -55.39494,-0.45927 -59.04483,-3.15399 -2.06956,-1.52796 -4.96283,-4.65484 -6.42949,-6.94864 l -2.66667,-4.17054 -65.66667,-0.0513 -65.66667,-0.0514 v 14.66666 14.66667 h 165.33334 165.33333 z m -120.83333,-14.83333 c 0.45833,-2.29167 0.83333,-5.92197 0.83333,-8.06736 v -3.90068 l -32.11986,0.40068 c -31.45226,0.39236 -32.17024,0.46295 -34.54312,3.39583 -2.86187,3.53726 -2.15818,7.61182 1.7925,10.37898 2.26064,1.58341 8.59051,1.95921 33.0005,1.95921 h 30.20332 z m 48.10897,1.01223 c 2.21396,-2.21395 3.43555,-5.40432 4.0973,-10.70078 0.87709,-7.02002 0.69936,-7.772 -2.54838,-10.78189 -3.83708,-3.55609 -4.203,-4.78445 -2.0628,-6.92465 2.1838,-2.1838 -4.41145,-6.68364 -14.24972,-9.72238 -10.36184,-3.20045 -30.62645,-5.38253 -49.98664,-5.38253 h -14.5254 v 10.21121 10.21123 l 28.71643,-0.8314 28.71644,-0.83141 1.4796,3.24737 c 2.25757,4.95485 -0.41825,7.12731 -9.35659,7.59644 l -7.55588,0.39656 -0.44018,8.33333 -0.4402,8.33333 h 17.5008 c 16.62506,0 17.65864,-0.15785 20.65522,-3.15443 z m -124.57078,-14.25024 c 2.57493,-4.81131 9.3413,-7.91703 17.29514,-7.93835 4.03334,-0.0107 9.58334,-0.39156 12.33334,-0.84611 l 5,-0.82644 v -9.82554 c 0,-9.62773 -0.0681,-9.82555 -3.3798,-9.82555 -9.88179,0 -104.37228,4.11482 -106.73796,4.64817 -5.20992,1.17459 -7.60957,-2.23199 -8.68909,-12.33513 -1.04705,-9.7993 -4.34448,-17.92968 -8.96726,-22.11032 -1.49849,-1.35518 -3.36233,-2.06976 -4.14188,-1.58798 -0.93569,0.57828 -1.41735,11.4973 -1.41735,32.13062 v 31.25464 h 48.61976 c 47.67746,0 48.64815,-0.0531 50.0851,-2.73801 z m 179.21904,0.10813 c 3.25479,-1.57561 6.89771,-4.88953 9.08762,-8.26689 9.86393,-15.21244 0.80809,-34.53586 -17.15245,-36.59999 -5.47893,-0.62968 -7.68643,-0.13902 -13.76147,3.05876 -9.1129,4.79689 -13.43093,12.06301 -13.43093,22.6008 0,5.71211 -0.51421,7.35191 -2.66667,8.50387 -2.0554,1.10001 -2.66666,2.79176 -2.66666,7.38024 v 5.95309 h 17.57904 c 14.77185,0 18.44653,-0.41996 23.01152,-2.62983 z m -56.58546,-31.03679 c 0.003,-0.18333 1.83058,-9.33333 4.06172,-20.33333 7.53623,-37.15519 6.74426,-49.18066 -3.52141,-53.46992 -6.02457,-2.51724 -12.16268,-1.66232 -25.96675,3.61666 -7.89804,3.02038 -25.65838,12.396 -29.13948,15.38262 -0.30845,0.26464 0.66658,1.82878 2.16672,3.47589 3.9932,4.38441 5.72743,8.2926 5.72743,12.90709 0,2.24822 0.54683,4.08766 1.21519,4.08766 1.77108,0 23.0534,-9.22972 24.9918,-10.83846 2.28817,-1.89901 7.24218,-0.93926 8.91285,1.7267 1.77025,2.82486 -0.80915,6.17094 -6.63396,8.60578 -3.49113,1.45934 -4.97577,3.64671 -9,13.26008 -2.65057,6.33186 -4.81921,12.27499 -4.81921,13.20696 0,1.06548 2.84589,2.04182 7.66666,2.63015 4.21667,0.51463 10.96667,2.03057 15,3.36877 7.52219,2.49578 9.32954,2.95511 9.33844,2.37335 z m -130.40482,-7.13051 24.93361,-0.82004 -3.83559,-3.22744 c -4.46488,-3.75693 -6.03972,-9.20701 -4.1197,-14.25705 0.74546,-1.96072 0.9045,-3.56496 0.35341,-3.56496 -0.55108,0 -5.78623,-0.58103 -11.63365,-1.29117 -5.84744,-0.71014 -17.93283,-1.90642 -26.85644,-2.65838 -8.92362,-0.75197 -17.77362,-1.95609 -19.66667,-2.67584 l -3.44192,-1.30861 v 16.0226 16.0226 l 9.66667,-0.71083 c 5.31666,-0.39096 20.8868,-1.07985 34.60028,-1.53088 z m 89.20566,-7.86949 c 4.70407,-12.34004 4.96088,-11.79349 -3.70762,-7.89032 -4.27075,1.92299 -10.46499,4.41601 -13.76499,5.54004 -3.3,1.12403 -7.23867,3.16268 -8.7526,4.53032 -1.51393,1.36764 -3.42852,2.48663 -4.25464,2.48663 -0.82613,0 -1.77956,0.45 -2.11875,1 -0.33918,0.55 6.28494,1 14.72027,1 h 15.33697 z m -40.80594,-1.20479 5.33333,-1.6665 -9.33333,-4.31423 c -7.52184,-3.47688 -10.1097,-4.09429 -13.33334,-3.18112 -5.63293,1.59568 -5.3177,5.70837 0.66667,8.69791 5.38587,2.69053 9.20104,2.79674 16.66667,0.46394 z m 21.74858,-12.84716 c 4.03131,-3.75572 3.98907,-11.81329 -0.0819,-15.62681 -4.7179,-4.41953 -9.99825,-5.8452 -24.33333,-6.56988 -9.98065,-0.50456 -18.86526,-2.15468 -35.33333,-6.56241 -30.33799,-8.12007 -28.53688,-7.07815 -27.49912,-15.90787 l 0.85569,-7.28108 h -14.01164 -14.01165 v 14.13333 14.13334 l 4.33544,4.33544 c 4.09153,4.09153 5.04797,4.3884 17,5.27666 30.52544,2.26864 62.08212,6.32606 65.24515,8.38892 5.21606,3.40182 17.79217,8.2814 21.50133,8.34262 1.87838,0.0309 4.72838,-1.16702 6.33333,-2.66226 z m -11.45432,-35.21013 c -2.2139,-2.81452 -2.81621,-3.03823 -3.48534,-1.29451 -1.3387,3.4886 -0.95022,4.34855 2.19108,4.85027 4.1962,0.67021 4.32977,0.30327 1.29426,-3.55576 z m -14.31048,0.62164 c 1.81243,-2.93256 7.55942,-24.09257 9.40966,-34.64567 1.08832,-6.20734 2.52609,-11.83342 3.19504,-12.50237 0.66894,-0.66895 2.84336,-0.80791 4.83202,-0.30879 3.60647,0.90518 3.61355,0.93115 2.75984,10.11675 l -0.8559,9.20924 6.8265,-4.2436 c 3.75458,-2.33397 7.10847,-4.97837 7.4531,-5.87645 0.94149,-2.45348 -3.2815,-16.00243 -7.98786,-25.6281 -2.90566,-5.94278 -6.13492,-10.07617 -10.67722,-13.66666 -3.58147,-2.83099 -6.90788,-5.14582 -7.39203,-5.14407 -0.48415,10e-4 -2.53188,3.15173 -4.55053,7 -2.01864,3.84825 -6.11532,9.84683 -9.10374,13.33016 -8.50628,9.91503 -9.83732,9.29889 -21.60276,-10 -9.572,-15.70099 -10.14617,-16.34945 -14.83069,-16.74956 -5.72476,-0.48896 -18.37539,2.91229 -24.26791,6.52467 -13.01808,7.98066 -17.14241,17.40344 -19.94077,45.55822 l -0.89452,9 h 14.0492 14.0492 l 0.89435,-9 c 1.44434,-14.53486 2.31605,-16.94222 6.30528,-17.41324 5.78489,-0.68304 6.22944,2.39527 3.51182,24.318 -1.35709,10.94763 -2.21662,20.1556 -1.91005,20.46216 0.30656,0.30658 8.84943,2.86528 18.98412,5.68602 18.11852,5.04284 30.15196,6.54902 31.74385,3.97329 z m 33.89907,-4.88801 c 3.36443,-1.94066 6.33805,-3.71156 6.60804,-3.93535 0.80189,-0.66465 -2.90279,-17.86953 -3.8478,-17.86953 -0.85461,0 -15.56829,9.93692 -17.77707,12.0058 -1.34797,1.26258 5.42056,13.32753 7.47686,13.32753 0.78256,0 4.17554,-1.5878 7.53997,-3.52845 z m -40.12884,-75.29559 c 1.60196,-2.65323 2.91265,-6.62976 2.91265,-8.83675 0,-5.70085 3.13183,-7.74206 11.20596,-7.30363 8.78644,0.4771 16.0208,-3.5497 21.05235,-11.71821 3.48235,-5.65345 11.56735,-32.60284 10.19329,-33.97689 -0.35204,-0.35203 -4.03266,0.55234 -8.17918,2.00973 -5.1511,1.81046 -10.98014,2.64978 -18.40254,2.64978 h -10.8634 l -8.49082,7.94277 c -5.20675,4.87065 -10.55847,8.56223 -13.83658,9.54438 -4.36849,1.30883 -5.34574,2.20524 -5.34574,4.90351 0,1.81604 -0.69255,7.06047 -1.53899,11.6543 l -1.539,8.35241 6.43529,11.13465 c 8.85538,15.32199 8.53002,14.98968 11.21544,11.4545 1.24774,-1.64259 3.57931,-5.15734 5.18127,-7.81055 z m -4.9806,-59.38982 8.77341,-8.45281 12.55992,-0.007 c 13.8398,-0.008 20.74635,-1.42991 25.45031,-5.23894 l 3.10379,-2.5133 -4.12691,-5.12016 c -6.88045,-8.53646 -15.39264,-12.96846 -26.06547,-13.57156 -21.10528,-1.1926 -32.6162,10.7369 -34.15466,35.39661 l -0.70872,11.35997 3.19745,-1.69978 c 1.75861,-0.93487 7.14551,-5.50354 11.97088,-10.15259 z"
       id="path1179"
       inkscape:export-filename="/home/maritza88/Documents/development/korektiva2.0/src/assets/images/pattern.png"
       inkscape:export-xdpi="300"
       inkscape:export-ydpi="300" />
    <path
       style="fill:#a6d4b5;fill-opacity:1;stroke-width:1.33333"
       d="m -466.37664,0.4314495 c -2.66595,-0.99129 -2.87455,-2.273 -3.71472,-22.8248005 -0.93587,-22.89213 -2.97572,-45.27763 -4.53567,-49.77453 -0.50878,-1.46667 -1.22505,14.13333 -1.59172,34.66666 l -0.66666,37.3333405 -3.07339,0.43568 c -6.52475,0.92496 -6.92901,-0.7714 -6.89504,-28.9322705 0.0291,-24.10547 1.243,-46.71773 3.41453,-63.60424 l 0.87027,-6.7675 -8.49152,-10.476149 c -4.67034,-5.76188 -9.22357,-10.71052 -10.1183,-10.99699 -2.40005,-0.76841 -7.02915,7.65476 -7.0349,12.80083 -0.003,2.45264 2.11132,10.653039 4.69792,18.223089 l 4.7029,13.76372 0.80887,34.64187 c 0.44488,19.05302 0.40798,36.2391205 -0.082,38.1913205 -0.76547,3.04988 -1.4943,3.49112 -5.17844,3.13504 l -4.28758,-0.4144 -0.67517,-38.0000005 -0.67516,-38 -4.42286,-10.66667 c -7.70254,-18.576319 -6.99387,-30.213329 2.41277,-39.619969 4.61513,-4.61512 5.09741,-5.79487 5.60081,-13.70064 0.58463,-9.1814 2.81082,-13.52335 9.49075,-18.51063 5.70149,-4.25678 16.83551,-4.37428 33.96158,-0.35838 14.53729,3.40885 14.78736,3.42113 26.49155,1.30102 6.49865,-1.17716 16.9603,-2.2088 23.24812,-2.29252 10.66704,-0.14202 11.7711,0.10587 16.49178,3.70316 13.58358,10.35102 13.10314,30.2439 -1.16276,48.14463 -7.20006,9.034589 -10.02474,14.633079 -12.74048,25.251509 -2.69392,10.5331 -5.25965,38.98577 -5.41792,60.08182 -0.0495,6.6 -0.51254,14.4000005 -1.02897,17.3333305 -0.79987,4.54335 -1.48084,5.39594 -4.59741,5.75596 -2.49256,0.28795 -3.93736,-0.3042 -4.53364,-1.85808 -1.08467,-2.8266 1.86164,-65.2698505 3.53904,-75.0054105 2.86357,-16.62001 5.54453,-22.49721 19.21486,-42.122769 5.79838,-8.32432 7.68324,-17.81645 4.88115,-24.58129 -3.09785,-7.47887 -9.80479,-8.31219 -35.12287,-4.36395 l -15.71149,2.45013 -15.59404,-3.80396 c -19.7292,-4.81268 -22.18787,-4.80418 -27.08553,0.0935 -3.01238,3.01239 -3.89744,5.11216 -3.89744,9.24655 0,7.50868 1.37821,10.41913 9.91654,20.94121 13.00175,16.02249 19.20883,31.770879 22.03832,55.914809 1.70527,14.55097 3.97368,59.3014305 3.11892,61.5289205 -0.88262,2.30009 -3.31792,2.94445 -6.56501,1.73708 z M -565.28541,-123.76788 c -3.96562,-3.96563 -1.76211,-6.49235 10.8876,-12.48457 6.86818,-3.25348 13.07519,-5.91543 13.79335,-5.91543 2.24585,0 5.81888,4.85508 5.04917,6.86091 -0.85523,2.2287 -22.23718,13.13909 -25.74972,13.13909 -1.30922,0 -3.1004,-0.72 -3.9804,-1.6 z m 220.79213,-4.05083 c -11.58488,-5.44209 -13.63945,-7.2846 -12.22711,-10.96508 1.54435,-4.02453 5.86095,-3.58194 17.52099,1.79643 12.68608,5.85165 15.15421,8.12403 12.83766,11.81948 -2.30897,3.68337 -5.7043,3.18697 -18.13154,-2.65083 z m -229.01189,-32.92818 c -1.78505,-3.33542 -1.76379,-3.51363 0.715,-5.99242 1.6176,-1.6176 5.05223,-2.09524 15.06666,-2.09524 13.71656,0 16.17143,0.92964 16.17143,6.12402 0,3.98517 -2.1348,4.54265 -17.39547,4.54265 -11.66347,0 -13.33594,-0.29629 -14.55762,-2.57901 z m 223.13181,-0.67644 c -0.40567,-1.05716 -0.52863,-3.00716 -0.27323,-4.33334 0.41403,-2.14982 2.0366,-2.41121 14.96745,-2.41121 12.08494,0 14.73674,0.37041 15.90442,2.22157 1.01693,1.61216 0.92057,2.80086 -0.35127,4.33334 -2.45044,2.9526 -29.12294,3.11982 -30.24737,0.18964 z m -141.65633,-7.62299 c -7.11745,-3.52304 -12.89501,-11.21971 -15.72205,-20.94436 -4.32737,-14.88564 0.70844,-31.91728 14.02156,-47.42242 3.73634,-4.35154 7.69378,-10.65154 8.7943,-14 2.91359,-8.86495 5.8426,-29.55405 7.86395,-55.5471 0.97484,-12.53578 2.20102,-23.48578 2.72484,-24.33334 0.66902,-1.08251 8.87152,-1.541 27.56896,-1.541 26.36653,0 26.62756,0.0282 27.78745,3 0.644,1.65 1.84364,11.26348 2.66587,21.36329 1.88941,23.20865 6.02006,47.5506 9.34418,55.06534 1.41168,3.19134 6.55416,10.04806 11.42774,15.23716 11.79018,12.55354 15.70154,21.15788 16.36526,36.00087 0.46303,10.35477 0.18136,11.96573 -3.26217,18.65751 -6.79651,13.20761 -19.41901,19.51416 -32.17995,16.078 -3.05509,-0.82266 -9.31244,-4.17076 -13.9052,-7.44024 -14.19626,-10.10602 -12.75956,-10.01114 -25.30442,-1.67123 -6.07532,4.03889 -13.08558,8.02577 -15.57834,8.85971 -7.10205,2.37594 -16.1627,1.83012 -22.61198,-1.36219 z m 22.87716,-9.94341 c 2.34692,-1.18535 7.47752,-4.55039 11.40134,-7.47787 12.87515,-9.60585 18.4685,-9.34601 32.18351,1.49507 12.39743,9.79961 23.12409,10.54256 30.52431,2.11418 7.39828,-8.42617 8.42542,-20.77244 2.79741,-33.62476 -1.36041,-3.10672 -6.74817,-10.16486 -11.97279,-15.68477 -5.22461,-5.51991 -10.63438,-12.60228 -12.02173,-15.73859 -2.79517,-6.31895 -7.06617,-29.09818 -9.29877,-49.59474 -0.79879,-7.33333 -1.76522,-15.88333 -2.14762,-19 l -0.69528,-5.66667 h -18.58496 c -10.22173,0 -18.58741,0.45 -18.59038,1 -0.0312,5.76385 -4.49906,47.8997 -6.11467,57.66667 -2.56041,15.4787 -6.24756,23.98908 -14.34197,33.10294 -8.63986,9.72802 -11.81942,16.58532 -12.5758,27.12202 -1.12058,15.6101 6.79557,26.3697 19.4374,26.41924 3.15308,0.012 7.65308,-0.94736 10,-2.13272 z m -85.73288,-12.47572 c -12.39908,-5.7643 -14.827,-8.03423 -12.51694,-11.70243 2.37611,-3.77307 4.62346,-3.41475 18.25032,2.90991 13.08855,6.07481 15.30542,8.51796 11.33329,12.49009 -2.48515,2.48515 -4.88678,1.96483 -17.06667,-3.69757 z m 200.05316,3.36162 c -3.21687,-3.87608 -0.79636,-6.56826 11.15525,-12.40732 13.66733,-6.67729 18.55777,-7.02008 19.21124,-1.34658 0.39188,3.40225 -0.42247,4.04229 -12.29918,9.66666 -13.88047,6.57331 -15.66839,6.97776 -18.06731,4.08724 z m -1095.36085,50.587 c -3.9656,-3.96563 -1.7621,-6.49235 10.8876,-12.48457 6.8682,-3.25348 13.0752,-5.91543 13.7934,-5.91543 2.2458,0 5.8189,4.85508 5.0492,6.86091 -0.8553,2.2287 -22.2372,13.13909 -25.7498,13.13909 -1.3092,0 -3.1004,-0.72 -3.9804,-1.6 z m -8.2197,-36.97901 c -1.7851,-3.33542 -1.7638,-3.51363 0.715,-5.99242 1.6176,-1.6176 5.0522,-2.09524 15.0666,-2.09524 13.7166,0 16.1715,0.92964 16.1715,6.12402 0,3.98517 -2.1348,4.54265 -17.3955,4.54265 -11.6635,0 -13.3359,-0.29629 -14.5576,-2.57901 z m 18.6197,-30.71856 c -12.399,-5.7643 -14.827,-8.03423 -12.5169,-11.70243 2.3761,-3.77307 4.6235,-3.41475 18.2503,2.90991 13.0886,6.07481 15.3054,8.51796 11.3333,12.49009 -2.4851,2.48515 -4.8868,1.96483 -17.0667,-3.69757 z"
       id="path1337"
       sodipodi:nodetypes="sssscssscsscscssscccsssssssssssssssssscsssssssssssssssssssssssssssssssssssssssssssssssssssssssssscssssscsssssssssss"
       inkscape:export-filename="/home/maritza88/Documents/development/korektiva2.0/src/assets/images/pattern.png"
       inkscape:export-xdpi="300"
       inkscape:export-ydpi="300" />
    <path
       style="fill:#a6d4b5;fill-opacity:1;stroke-width:1.33333"
       d="m -28.598241,-226.06612 c -2.7814,-3.35132 -0.3553,-6.52618 10.237505,-13.39733 43.732,-28.36723 60.0419,-44.28528 80.8243,-78.88231 4.4071,-7.33662 4.7644,-8.59037 3.3393,-11.71818 -1.1293,-2.47856 -2.2086,-3.22344 -3.6917,-2.54787 -1.1527,0.52508 -4.8493,1.19965 -8.2146,1.49907 -5.5421,0.49308 -6.453,0.14706 -9.6666,-3.67214 -2.4512,-2.913 -3.548,-5.75084 -3.548,-9.17969 0,-4.47195 -0.4669,-5.13199 -4.7169,-6.66883 -2.9076,-1.05141 -6.04,-3.70504 -8.1664,-6.91829 -2.9691,-4.48664 -3.3624,-6.26464 -2.8233,-12.76559 0.5179,-6.24445 2.9616,-12.19514 14.1058,-34.34954 7.4137,-14.73815 16.559,-31.78144 20.3229,-37.87399 6.077,-9.83678 7.2398,-11.03136 10.3826,-10.66666 2.0171,0.23407 3.7197,1.3633 3.9589,2.62572 0.2308,1.21827 -3.0038,8.11827 -7.1881,15.33333 -12.4576,21.48106 -28.1759,52.61845 -30.377,60.1757 -2.2486,7.7204 -1.2683,13.01384 2.6916,14.53338 3.2278,1.23861 5.8225,-2.28175 23.5109,-31.89836 8.6123,-14.41988 16.2581,-26.58846 16.9908,-27.04125 2.2618,-1.3979 6.6415,0.7325 6.6415,3.23058 0,2.17025 -10.6206,21.1822 -29.8213,53.38312 -7.4447,12.48524 -9.0003,18.04679 -5.912,21.13513 4.9707,4.97075 10.1155,-0.5341 34.3303,-36.73333 10.4242,-15.58333 19.455196,-28.33333 20.068996,-28.33333 3.0948,0 5.334,1.92905 5.334,4.5952 0,3.0374 -16.517996,29.6587 -29.346196,47.2959 -5.7312,7.87963 -7.1354,10.8441 -7.2179,15.23803 -0.1179,6.27643 2.5844,7.80807 7.7752,4.40689 1.694,-1.10994 12.3145,-14.38152 23.601096,-29.49237 18.0141,-24.11779 20.9284,-27.42763 23.8545,-27.09231 5.9842,0.68578 5.0196,5.98264 -2.7405,15.04866 -6.6913,7.81741 -24.6339,33.48484 -26.126696,37.37521 -0.5287,1.3776 0.1803,1.96491 2.391196,1.981 3.4951,0.0255 27.365,-23.74467 37.8467,-37.68839 13.7687,-18.31645 30.2491,-50.37639 36.3506,-70.71424 1.82,-6.06637 7.8472,-17.08416 19.78141,-36.16053 15.3777,-24.58049 17.5362,-27.43705 20.7408,-27.44776 3.779,-0.0127 6.1236,3.78744 4.3042,6.97612 -0.5268,0.92323 -7.8979,12.7786 -16.3804,26.34526 -16.21181,25.92872 -24.68531,44.65675 -21.21321,46.88486 0.9419,0.60443 7.41261,3.28259 14.37921,5.95147 22.2184,8.51169 24,9.43596 24,12.45061 0,1.58929 -1.2952,3.36037 -3.0383,4.15459 -2.4919,1.13536 -6.4464,0.0828 -21.9863,-5.85211 l -18.94791,-7.23646 -7.9889,15.89346 c -10.8101,21.50607 -15.0852,27.63337 -34.3323,49.20669 -22.6553,25.39343 -31.0005,30.75563 -40.494196,26.01958 -3.687,-1.83932 -4.6279,-1.88523 -6.4321,-0.3138 -1.1623,1.01237 -3.8344,2.7198 -5.938,3.79429 l -3.8247,1.9536 7.3865,6.37707 c 19.562396,16.88888 56.460196,40.96818 88.003996,57.43088 15.81911,8.25596 17.04451,9.16913 16.66671,12.42013 -0.247,2.12551 -1.36151,3.68996 -2.82671,3.96799 -2.9762,0.56472 -38.3535,-17.34222 -55.5811,-28.13356 -15.9996,-10.0221 -40.284396,-27.19746 -51.789496,-36.62802 -7.8202,-6.4101 -9.008,-6.9892 -10.1975,-4.9719 -0.7405,1.25578 -5.394,8.47468 -10.3412,16.04201 -15.1239,23.13409 -27.5243,34.78344 -63.8473997,59.9804 -18.2023003,12.62684 -22.1054053,14.28606 -25.1046053,10.67221 z m -81.719799,-52.83746 c -4.1722,-2.43007 -2.4959,-6.52571 6.6697,-16.29611 11.873499,-12.65703 35.885199,-39.70705 43.471899,-48.97268 6.0233,-7.35628 6.0351,-7.39119 4.5146,-13.33333 -2.4503,-9.57571 -1.9742,-54.34351 0.7298,-68.62441 3.2632,-17.23391 2.9986,-23.85417 -1.2473,-31.21619 -1.9404,-3.36443 -11.0398,-18.34249 -20.2209,-33.28457 -17.514,-28.50369 -18.365,-31.01728 -10.7833,-31.85099 2.8426,-0.31258 5.2229,2.95441 21.3721,29.33334 9.9952,16.32678 19.251,31.78507 20.5683,34.35174 3.2166,6.26696 2.9831,20.17039 -0.7837,46.66666 -4.146,29.16367 -2.9102,47.00488 5.1816,74.8106 3.1507,10.82686 5.0582,14.52274 7.4954,14.52274 3.3304,0 3.2456,-1.92343 -0.5614,-12.72235 -5.3768,-15.25159 -10.0398,-34.37145 -9.0267,-37.01168 1.1351,-2.95815 5.8576,-2.91513 7.3975,0.0673 0.6626,1.28333 1.6309,4.69017 2.1519,7.57075 1.426,7.88581 8.5613,28.47142 12.744105,36.76752 4.5865,9.09678 10.2101,14.91729 13.9025003,14.38932 4.4088,-0.63042 3.2429,-6.68862 -4.5664003,-23.72759 -7.3074,-15.94408 -15.080905,-42.94059 -14.397105,-50 0.2805,-2.89603 1.163,-4.11072 3.1975,-4.40119 3.358905,-0.47953 4.023805,1.01692 9.946705,22.38874 4.4890003,16.19734 13.08200027,37.48436 16.7819003,41.57268 2.8481,3.14713 5.3486,3.09796 7.0810997,-0.13924 2.2708,-4.24304 1.6605,-7.38656 -4.6223997,-23.81098 -6.61660003,-17.29677 -12.339,-38.27616 -13.5358,-49.62465 -0.6272,-5.94745 -0.1989,-8.57321 2.2468,-13.77623 3.77769997,-8.03674 14.1701,-19.53654 24.6248997,-27.24905 4.4,-3.24585 8,-6.58972 8,-7.43081 0,-0.8411 -5.1,-4.23119 -11.3333,-7.53354 -6.2333,-3.30236 -13.3691997,-7.45438 -15.85759973,-9.22672 -5.31669997,-3.78693 -11.17000027,-15.77254 -20.73920027,-42.46709 -5.138705,-14.33516 -6.033805,-18.07216 -4.710405,-19.66667 2.0063,-2.41752 5.829505,-2.55234 7.721805,-0.2723 0.7743,0.93295 5.1404,11.88295 9.7025003,24.33334 9.7399,26.58101 11.9002,29.29767 31.7331997,39.90518 6.7886,3.6308 12.9202,7.68017 13.6258,8.9986 1.1707,2.18754 1.682,2.2304 5.847,0.49014 2.5103,-1.04886 8.0395,-5.43095 12.2872,-9.73797 11.2416,-11.39869 24.0367,-17.83776 49.722996,-25.02289 6.9667,-1.94876 13.788,-4.54507 15.1584,-5.76958 1.3704,-1.22452 6.3165,-10.1532 10.9914,-19.84153 4.6748,-9.68832 9.569,-18.18745 10.876,-18.88694 2.9999,-1.60549 6.9742,0.44195 6.9742,3.5929 0,3.04269 -15.3273,34.40337 -19.4965,39.89127 -4.2429,5.58486 -5.8075,6.3543 -22.863,11.2435 -24.282396,6.96093 -39.428096,14.98937 -45.035896,23.87276 -2.424,3.8399 -4.9494,5.67087 -10.8806,7.88874 -26.1235,9.76836 -48.3905997,29.78345 -48.3905997,43.49638 0,5.88066 7.7595997,35.62396 13.4058997,51.38587 5.5191,15.40688 6.1769,19.86544 3.8426,26.04384 -2.0459,5.41499 -7.9189,11.0868 -11.4800997,11.0868 -2.2491,0 -3.5903,1.25496 -5.034,4.71004 -2.4346,5.82703 -8.6054,8.85656 -14.5606003,7.14861 -2.2212,-0.63702 -6.5505,-3.62356 -9.6207,-6.63676 -4.796905,-4.70778 -5.966505,-5.2729 -8.313405,-4.01688 -7.9919,4.27715 -15.9731,-1.29078 -19.566,-13.64992 -1.2001,-4.1282 -2.6522,-7.79642 -3.2269,-8.15161 -0.5747,-0.3552 -6.6778,5.78371 -13.5624,13.64201 -17.7043,20.20822 -41.322999,45.62862 -42.349999,45.58063 -0.4773,-0.0223 -1.9178,-0.65211 -3.2011,-1.39959 z"
       id="path1495"
       inkscape:export-filename="/home/maritza88/Documents/development/korektiva2.0/src/assets/images/pattern.png"
       inkscape:export-xdpi="300"
       inkscape:export-ydpi="300" />
    <path
       style="fill:#a6d4b5;fill-opacity:1;stroke-width:1.33333"
       d="m -908.81475,-289.2543 c -6.30932,-2.74115 -19.50958,-15.80215 -26.21952,-25.94294 -9.314,-14.07628 -24.7076,-41.54513 -43.8957,-78.32898 -9.8647,-18.91079 -25.78673,-48.76962 -35.38223,-66.35295 -9.5954,-17.58335 -17.4463,-33.21588 -17.4463,-34.73896 0,-16.00721 58.01363,-58.24603 77.45233,-56.3918 l 4.5477,0.4338 33.58345,67.33333 c 19.46215,39.02079 34.74625,68.10687 36.34891,69.17298 2.41248,1.6048 3.82734,1.45512 11.08326,-1.17246 13.06531,-4.73132 39.97609,-17.84046 49.56486,-24.14472 9.87173,-6.49029 9.95361,-6.65533 13.93556,-28.08791 1.45429,-7.82766 3.66609,-16.22766 4.9151,-18.66666 5.02912,-9.82064 44.32224,-44.43385 52.09742,-45.89248 8.44713,-1.58469 14.50668,5.48355 13.5377,15.79125 -0.44216,4.70367 -0.24784,5 3.2788,5 7.26899,0 14.32166,7.51003 14.32166,15.2504 0,2.48423 1.38629,4.25794 5.2188,6.6773 7.09156,4.47671 9.44786,8.26188 9.44786,15.17708 0,4.65869 0.68184,6.38111 3.35998,8.48772 5.09245,4.00573 7.3068,9.46396 7.30564,18.00796 -0.001,12.2275 -5.6161,22.54448 -19.83466,36.44782 -12.45682,12.18068 -23.96889,19.16187 -42.51856,25.78427 -14.65558,5.23217 -17.63252,7.10848 -33.2361,20.94796 -44.35727,39.34235 -63.23147,54.59463 -82.07131,66.32196 -16.9058,10.52345 -29.22819,13.30293 -39.39465,8.88603 z m 20.37844,-10.22599 c 2.35829,-1.07451 3.17741,-2.23303 2.59249,-3.66667 -4.66828,-11.44178 -9.88624,-35.83782 -11.55444,-54.02158 -0.3446,-3.75614 -0.5758,-3.57527 -5.35111,4.1863 -2.74502,4.46163 -9.7567,12.59534 -15.5815,18.0749 l -10.59056,9.96284 3.4267,5.18418 c 4.55101,6.88514 13.44351,16.22799 18.40298,19.33498 4.54448,2.84701 13.48686,3.30001 18.65544,0.94505 z m 25.42965,-15.82393 c 6.14173,-4.43379 11.45763,-8.53202 11.81311,-9.10719 0.35546,-0.57517 -1.89083,-6.10107 -4.99179,-12.27979 -8.37037,-16.67816 -12.97981,-32.83274 -17.56269,-61.5516 -0.69368,-4.34694 -1.26891,-5.00065 -4.40414,-5.00498 -1.98344,-0.003 -5.64385,-1.24719 -8.13425,-2.76546 l -4.52799,-2.76045 0.9057,16.43211 c 2.50234,45.40036 9.22966,85.09878 14.42088,85.09878 0.7229,0 6.33942,-3.62764 12.48117,-8.06142 z m 32.24824,-25.32347 c 8.94091,-7.40975 11.49139,-10.61511 8.44635,-10.61511 -2.12887,0 -13.5539,-16.27572 -18.93022,-26.96734 -2.84884,-5.66536 -6.74017,-14.96536 -8.6474,-20.66667 -1.90722,-5.70129 -3.63362,-10.54171 -3.83646,-10.75647 -0.20283,-0.21476 -2.60666,0.67668 -5.34183,1.981 l -4.97305,2.37148 0.91244,9.25987 c 2.10998,21.41296 16.50812,63.52701 21.6839,63.42463 0.56079,-0.0107 5.3696,-3.62522 10.68627,-8.03139 z m -91.61619,-5.00537 c 7.32008,-7.55987 11.77083,-13.70138 16.33846,-22.54514 5.77444,-11.18037 6.27773,-12.92438 6.27773,-21.75334 v -9.5985 l -8.03261,7.43679 c -9.9221,9.18611 -23.02244,17.00728 -35.30074,21.07521 -5.1333,1.70074 -9.5523,3.21491 -9.82,3.36482 -0.4484,0.25118 3.3834,7.50453 13.4239,25.41042 2.1588,3.85 4.6288,7 5.4888,7 0.8601,0 6.09107,-4.67562 11.62446,-10.39026 z m 125.28986,-24.41303 c 19.17626,-16.85357 24.34704,-20.22117 37.84578,-24.64809 15.75504,-5.16687 27.56039,-11.75414 37.69175,-21.03159 16.40464,-15.02201 24.41844,-32.14665 18.0322,-38.53289 l -2.76385,-2.76385 -1.60879,3.53089 c -1.89511,4.15933 -5.87463,5.79208 -8.60141,3.52905 -2.73404,-2.26905 -2.4224,-5.30394 1.38429,-13.48116 3.86813,-8.30917 4.12387,-11.42901 1.27076,-15.50239 -2.88232,-4.11508 -4.15353,-3.71363 -5.15567,1.62817 -0.99805,5.32009 -5.21806,7.53058 -8.36629,4.38235 -1.68872,-1.68871 -1.73025,-3.37508 -0.29373,-11.92435 1.75734,-10.45853 1.28233,-13.93275 -2.08144,-15.22355 -5.08286,-1.95047 -9.55222,1.1974 -24.5343,17.28 -8.02828,8.61799 -12.49858,9.73276 -13.24101,3.30194 -0.33189,-2.87483 1.43155,-5.58326 8.83135,-13.56396 5.08532,-5.48453 10.56618,-12.69891 12.17968,-16.03197 3.34584,-6.91158 3.23566,-12.14531 -0.25568,-12.14531 -3.5072,0 -39.12523,31.92213 -43.00518,38.54275 -2.17161,3.70557 -4.29261,10.97311 -6.04872,20.72569 -1.48742,8.26049 -3.5503,17.04355 -4.58416,19.51792 -2.1677,5.18804 -16.33834,15.07051 -32.65498,22.77328 -5.52618,2.60882 -10.26572,4.94326 -10.53232,5.18766 -1.11027,1.01784 5.45629,19.4371 10.90409,30.58604 5.288,10.8219 16.96332,27.33333 19.32756,27.33333 0.51356,0 7.83059,-6.06148 16.26007,-13.46996 z m -141.45872,-13.94203 c 18.68887,-8.81474 31.89372,-20.21541 38.46413,-33.20872 l 2.67369,-5.28737 -2.72649,-5.61195 -2.72649,-5.61194 -5.4499,5.5711 c -13.5536,13.85507 -40.98174,30.33948 -53.83474,32.35488 -3.1451,0.49315 -5.5323,1.26624 -5.3049,1.71798 0.2274,0.45174 2.2006,4.32376 4.3849,8.60449 l 3.9715,7.78315 5.3333,-0.82543 c 2.9334,-0.45397 9.7801,-2.92276 15.215,-5.48619 z m -14.523,-25.82352 c 4.7806,-1.96905 12.5806,-6.17446 17.3333,-9.34536 9.12532,-6.08812 26.64142,-22.36748 26.64142,-24.76034 0,-0.777 -2.08582,-5.34079 -4.63514,-10.14176 l -4.63514,-8.72903 -7.37268,7.141 c -13.06266,12.65217 -36.01296,26.18095 -50.67786,29.8736 -3.3069,0.83269 -6.0125,1.75772 -6.0125,2.05564 0,0.29792 2.1103,4.73213 4.6895,9.85381 l 4.6895,9.31215 5.6438,-0.83981 c 3.1041,-0.4619 9.5552,-2.45086 14.3358,-4.4199 z m -21.7282,-27.48849 c 16.8571,-5.65872 37.8805,-19.65558 47.4941,-31.62036 l 4.02633,-5.01103 -15.97573,-32.98897 c -12.0536,-24.89001 -16.6139,-33.08119 -18.5754,-33.36461 -3.6536,-0.5279 -22.1011,8.76849 -33.646,16.95551 -11.48523,8.14469 -27.84983,23.27531 -28.96143,26.77752 -0.969,3.05319 31.14723,62.61187 33.77263,62.63025 0.9707,0.007 6.3102,-1.51344 11.8655,-3.37831 z"
       id="path1811"
       inkscape:export-filename="/home/maritza88/Documents/development/korektiva2.0/src/assets/images/pattern.png"
       inkscape:export-xdpi="300"
       inkscape:export-ydpi="300" />
    <path
       style="fill:#a6d4b5;stroke-width:1.33333;fill-opacity:1"
       d="m -1424.0244,-548.52774 c -2.2243,-2.68636 -3.6795,-44.51036 -1.6344,-46.97453 2.2603,-2.72344 6.3153,-2.56345 7.8027,0.30787 0.6649,1.28333 1.5134,11.81306 1.8856,23.39941 0.5554,17.28588 0.3299,21.41312 -1.257,23 -2.3751,2.37505 -4.9673,2.47698 -6.7969,0.26725 z m 238.6534,0.0667 c -1.781,-1.78107 -2.1556,-20.75861 -0.7401,-37.50364 0.7091,-8.38885 1.3049,-10.31388 3.3973,-10.978 5.6505,-1.79337 6.4095,1.06648 6.4095,24.14967 0,17.98721 -0.3618,22.10329 -2.0953,23.83673 -2.5053,2.50536 -4.7984,2.66825 -6.9714,0.49524 z m -297.5333,-1.65303 c -1.238,-1.4916 -1.1148,-10.18861 0.5521,-39 1.18,-20.39417 2.6921,-40.88412 3.3603,-45.53321 1.659,-11.54385 7.8316,-24.08533 16.2895,-33.09745 7.7722,-8.28142 23.1421,-18.9856 32.262,-22.46855 6.2065,-2.37028 7.4694,-4.84981 7.4694,-14.66527 0,-2.39297 1.5824,-9.66797 3.5164,-16.16666 1.934,-6.49871 4.1247,-13.94144 4.8683,-16.5394 1.3017,-4.54788 0.6441,-6.00801 -17.6811,-39.2564 -19.6917,-35.72769 -20.5113,-38.07788 -13.6369,-39.10365 3.4114,-0.50905 3.9084,0.25974 25.4954,39.44272 18.7305,33.99784 18.3648,32.27163 11.5054,54.30757 -6.7899,21.81297 -6.2202,49.73109 1.5236,74.66666 3.6079,11.6174 6.6196,15.93627 10.1646,14.57595 2.98,-1.14353 2.8832,-2.26148 -1.5782,-18.22859 -2.1024,-7.52437 -4.2404,-17.08925 -4.7511,-21.25526 -0.8473,-6.91154 -0.6742,-7.71074 1.9781,-9.13016 4.1734,-2.23354 6.3803,0.52368 7.9018,9.87193 1.0074,6.18952 7.6214,31.24567 13.2422,50.16613 0.7434,2.50238 2.0449,3.4375 5.2209,3.75115 3.4797,0.34365 4.2306,-0.055 4.2306,-2.24617 0,-3.4143 -3.1496,-18.54562 -7.3621,-35.36886 -3.7039,-14.79208 -4.2102,-23.72461 -1.4735,-25.99586 2.4871,-2.06414 6.0643,-0.47555 6.7707,3.00681 0.3183,1.56912 3.3202,15.45293 6.6708,30.85293 3.3506,15.4 6.085,29.05 6.0764,30.33334 -0.019,2.86638 4.5833,7.66666 7.3507,7.66666 5.0104,0 4.6874,-5.84273 -2.1167,-38.28836 -3.6577,-17.4414 -6.4851,-33.21164 -6.2833,-35.04497 0.2987,-2.71305 1.0935,-3.33333 4.2711,-3.33333 4.6993,0 4.262,-1.29915 11.3664,33.76652 2.8712,14.17157 6.1737,27.22157 7.339,29 2.7296,4.16592 5.7123,4.116 7.6459,-0.128 1.9186,-4.21072 -2.5413,-33.59086 -8.5976,-56.63858 -2.216,-8.43333 -4.0956,-17.43333 -4.1768,-20 -0.1363,-4.3079 0.1535,-4.66666 3.7696,-4.66666 3.8933,0 3.9516,0.11733 9.4989,19.1509 3.0698,10.53299 6.3747,19.64114 7.3442,20.2403 0.9694,0.59917 2.9257,0.46693 4.3473,-0.29386 2.2748,-1.21744 2.4886,-2.36505 1.7841,-9.57364 -1.1904,-12.17986 -8.3602,-39.89664 -12.3646,-47.79908 -1.9934,-3.9337 -9.3386,-12.9936 -17.0172,-20.98954 l -13.5099,-14.06836 -12.2309,-37.27909 c -12.6325,-38.50303 -13.2309,-42.05424 -7.0863,-42.05424 1.424,0 3.4445,1.35 4.4901,3 1.0456,1.65 6.8625,18.3 12.9264,37 l 11.0254,33.99999 12.8728,13.53685 c 7.0801,7.44526 14.5527,16.74526 16.6059,20.66666 l 3.7329,7.12983 h 16.3234 16.3233 l 4.2109,-8 c 2.316,-4.4 8.7417,-12.8 14.2795,-18.66667 5.5378,-5.86666 10.8915,-11.86667 11.8972,-13.33333 1.0058,-1.46667 6.7206,-17.06667 12.6996,-34.66667 13.57,-39.94514 13.8703,-40.66666 16.9284,-40.66666 2.8846,0 5.668,2.44207 5.668,4.97299 0,0.97514 -5.692,18.32346 -12.6489,38.55181 l -12.6489,36.77882 -12.8551,13.3932 c -15.3096,15.95048 -17.5055,20.25017 -23.6731,46.35395 -6.4831,27.4388 -6.4661,27.29302 -3.5841,30.8522 2.3711,2.92816 2.6097,2.96472 5.0334,0.77129 1.3994,-1.26641 3.5072,-5.4612 4.684,-9.32175 1.1768,-3.86056 3.7084,-12.26918 5.6257,-18.68585 3.0955,-10.35961 3.8364,-11.66667 6.6133,-11.66667 6.0075,0 6.3207,2.51763 2.1262,17.09219 -4.7245,16.41617 -12.0058,52.83045 -12.0058,60.04216 0,5.62269 2.405,8.72736 5.7625,7.43896 2.7662,-1.06151 5.102,-8.45057 11.5612,-36.57331 6.1802,-26.90794 7.0471,-29.33333 10.4844,-29.33333 5.9496,0 5.8552,2.44523 -1.2678,32.83041 -7.5443,32.18238 -8.563,41.26948 -4.8922,43.63862 5.9032,3.80985 10.1311,-8.26339 18.3741,-52.46903 3.4336,-18.41375 4.7492,-21.10812 9.1556,-18.74992 4.0905,2.18921 3.6893,7.84821 -2.5111,35.41659 -5.5749,24.78693 -6.131,28.66666 -4.1091,28.66666 0.6734,0 2.0234,0.2937 3,0.65267 0.9767,0.35896 2.48,0.2018 3.3408,-0.34924 1.9286,-1.2346 13.358,-42.36485 14.8945,-53.59984 1.3443,-9.83037 3.8156,-13.05385 8.2061,-10.70411 2.6881,1.43863 2.8925,2.25942 2.1076,8.4635 -0.4781,3.77869 -2.6821,14.0059 -4.8978,22.72712 -4.0319,15.8695 -3.9054,19.4633 0.6239,17.72528 3.4342,-1.31784 5.8798,-6.41818 9.7091,-20.24871 3.3358,-12.04811 3.6948,-15.45397 3.7237,-35.33333 l 0.032,-22 -5.1132,-14.42571 c -3.6786,-10.37864 -4.8878,-15.61547 -4.31,-18.66666 0.4417,-2.33253 9.1471,-19.54097 19.3453,-38.24096 17.5102,-32.10754 18.753,-34 22.328,-34 2.8774,0 3.8852,0.69915 4.2005,2.91404 0.3574,2.51057 -30.832,62.40089 -34.5548,66.35262 -2.0727,2.20011 -1.3156,7.39387 2.8431,19.50605 2.4539,7.14676 4.3597,15.94766 4.8609,22.44732 l 0.8244,10.69144 10.8058,5.36463 c 13.96,6.93055 24.7477,15.49291 32.0965,25.47551 11.245,15.27525 12.1841,20.05573 15.9608,81.24838 1.9107,30.9582 1.679,33.33333 -3.2515,33.33333 -1.2871,0 -2.9546,-0.75 -3.7056,-1.66666 -0.7509,-0.9167 -2.3447,-18.4667 -3.5417,-39.00003 -2.4505,-42.03703 -3.364,-48.72703 -8.051,-58.96488 -4.4849,-9.79633 -17.543,-22.4932 -29.5633,-28.74561 -5.2406,-2.7259 -9.7733,-4.95618 -10.0727,-4.95618 -0.2994,0 -0.6649,2.55 -0.8122,5.66667 -0.5842,12.35583 -6.0574,35.34855 -10.4879,44.05896 -2.6346,5.17971 -9.3468,8.93009 -15.993,8.93605 -5.0732,0.004 -5.6365,0.35018 -6.4255,3.94238 -1.9673,8.95732 -11.2254,14.36861 -18.7316,10.94854 -2.7447,-1.25057 -3.708,-0.92161 -7.0307,2.4011 -7.5061,7.50613 -18.9901,6.73397 -23.5265,-1.5819 -2.3225,-4.25741 -3.0697,-4.70668 -6.817,-4.09858 -3.3522,0.544 -5.1168,-0.12854 -8.6725,-3.30559 -4.1104,-3.67269 -4.5017,-4.71367 -4.941,-13.14476 -0.2624,-5.03591 0.3908,-13.2062 1.4514,-18.1562 l 1.9285,-9 h -4.2071 c -5.7203,0 -9.6907,-3.08615 -12.984,-10.09231 l -2.7644,-5.88113 4.8072,-18.68972 c 2.644,-10.27935 4.8073,-19.58532 4.8073,-20.67995 0,-1.62508 -2.324,-1.99022 -12.6667,-1.99022 -10.3028,0 -12.6666,0.36881 -12.6666,1.97628 0,1.08694 2.1203,10.57504 4.7118,21.08464 l 4.7118,19.10837 -3.5038,6.2688 c -4.0187,7.19031 -7.2809,9.38952 -12.7396,8.58836 -2.1158,-0.31053 -3.8469,-0.51829 -3.8469,-0.46169 0,0.0565 0.8896,4.30268 1.9768,9.43573 3.6949,17.44371 1.9421,28.7036 -5.1963,33.38083 -2.0412,1.33746 -5.0458,2.02005 -7.3824,1.67712 -3.3297,-0.48871 -4.1848,0.012 -5.5196,3.23473 -2.1098,5.09359 -6.1321,7.70859 -11.8419,7.69861 -5.2083,-0.009 -12.0911,-3.08732 -13.8231,-6.18214 -0.8486,-1.5165 -2.4065,-1.78618 -6.4104,-1.10971 -7.5829,1.28113 -12.4896,-1.18843 -15.7523,-7.92827 -1.4946,-3.08748 -2.7171,-6.17416 -2.7166,-6.85929 4e-4,-0.68515 -2.8933,-1.04497 -6.4304,-0.79963 -5.3879,0.37372 -7.113,-0.1276 -10.6338,-3.09014 -6.1175,-5.14756 -11.8042,-23.55471 -15.7731,-51.05546 l -0.6301,-4.3662 -10.65,5.54076 c -5.8575,3.04743 -13.524,8.12466 -17.0365,11.28275 -6.7028,6.02635 -13.6439,17.56144 -15.9917,26.57555 -0.764,2.93333 -2.3626,23.03333 -3.5526,44.66666 -1.1899,21.63334 -2.7069,40.68333 -3.3712,42.33333 -1.3661,3.39351 -5.4765,3.95811 -7.8648,1.08031 z m 154.937,-211.74697 c -0.7275,-0.91667 -2.0832,-4.02461 -3.0125,-6.90655 -1.5701,-4.86924 -1.4794,-5.41017 1.2834,-7.64731 3.74,-3.02847 7.3811,-1.40427 8.6354,3.85202 0.4858,2.03601 1.1752,4.68862 1.5319,5.89468 0.7168,2.42343 -2.6454,6.47383 -5.3739,6.47383 -0.9578,0 -2.3367,-0.75 -3.0643,-1.66667 z m 45.1243,-0.76086 c -1.7676,-3.30283 0.856,-13.29167 3.9221,-14.93261 1.7096,-0.91492 3.1483,-0.62372 5.1687,1.04616 2.5176,2.08083 2.6505,2.85135 1.3185,7.64731 -0.8147,2.93333 -2.0923,6.08333 -2.8392,7 -1.9903,2.44274 -6.0753,2.03215 -7.5701,-0.76086 z m -22.1643,-6.10742 c -2.9522,-4.50563 -2.2347,-19.26564 1.0363,-21.3196 1.6957,-1.06476 2.971,-1.06447 4.6667,10e-4 3.4764,2.1845 4.1227,20.40166 0.8097,22.82418 -3.2283,2.3606 -4.1135,2.15596 -6.5127,-1.50564 z"
       id="path2111"
       inkscape:export-filename="/home/maritza88/Documents/development/korektiva2.0/src/assets/images/pattern.png"
       inkscape:export-xdpi="300"
       inkscape:export-ydpi="300" />
    <path
       style="fill:#a6d4b5;fill-opacity:1;stroke-width:1.33333"
       d="m -141.8602,219.77125 c -9.38931,-1.61565 -17.29442,-5.94719 -24.06637,-13.18696 -18.15142,-19.40533 -19.74173,-45.4854 -4.05003,-66.41788 4.85748,-6.4798 11.86693,-10.75825 44.28785,-27.03257 21.73796,-10.91181 29.313883,-15.312293 28.353663,-16.469283 -0.72068,-0.86836 -2.897843,-6.30795 -4.838123,-12.08797 -7.96674,-23.73251 -5.18407,-51.60759 8.023063,-80.3699601 12.67574,-27.6051199 35.82345,-50.4975399 62.11776,-61.4326599 28.6384897,-11.91001 64.22726,-10.89383 95.74808,2.73393 61.826467,26.73017 88.797207,100.02439 59.536727,161.793863 -3.21296,6.78263 -8.88936,16.86865 -12.61424,22.41341 l -6.77249,10.08136 h 27.93581 c 26.21102,0 28.02064,0.15851 29.30981,2.56736 0.75571,1.41206 0.92683,3.76207 0.38025,5.22224 -0.54657,1.46018 -12.69377,10.89787 -26.99377,20.97264 -14.3,10.07477 -34.699997,24.46244 -45.333327,31.9726 -10.63333,7.51015 -21.73333,15.06713 -24.66667,16.79332 l -5.33333,3.13851 -97.33333,0.20104 c -53.53334,0.11053 -100.194433,-0.29127 -103.691333,-0.89299 z m 196.691573,-9.19951 c 3.16886,-0.73588 20.56484,-12.07813 47.496837,-30.96818 l 42.49659,-29.80703 -79.747377,-0.3437 -79.74737,-0.34371 -21.0828,13.82051 c -61.87348,40.56026 -79.798093,47.94046 -100.329953,41.30941 -13.92288,-4.49659 -24.08617,-17.53767 -24.08617,-30.90629 0,-9.08374 2.36353,-14.4274 9.04995,-20.46087 14.8063,-13.36043 37.60675,-3.90763 37.60675,15.59132 0,11.11386 -6.48917,18.84926 -16.99456,20.25833 -9.86952,1.32377 -11.24329,-6.87949 -1.55234,-9.26959 5.70097,-1.40604 9.22353,-5.43802 9.22353,-10.55745 0,-5.34861 -1.99783,-8.68361 -6.63998,-11.08416 -6.44384,-3.33224 -10.47677,-2.5441 -16.18355,3.16267 -4.53428,4.53429 -5.17647,5.94851 -5.17647,11.39955 0,7.09725 2.10966,11.85454 7.54763,17.01991 11.13786,10.57955 26.95219,10.17455 36.101,-0.92454 16.779933,-20.35697 -1.44803,-53.86943 -29.35812,-53.97544 -13.74013,-0.0521 -23.93761,6.34533 -30.25013,18.9778 -3.28487,6.5736 -4.04038,9.74652 -4.04038,16.96836 0,12.35861 3.02412,20.18925 11.1643,28.90882 12.09936,12.96056 6.49472,12.36015 115.502373,12.37374 51.6999997,0.007 96.2501,-0.51082 99.00024,-1.14946 z m -122.33358,-38.76213 c 39.81206,-24.73368 45.52726,-28.88856 47.90224,-34.82422 5.52908,-13.81855 3.30078,-27.71699 -6.07449,-37.887963 -6.94969,-7.53952 -14.54135,-10.47756 -25.09975,-9.71384 -7.07962,0.51209 -12.05884,2.60505 -42.04598,17.673523 -18.708443,9.40096 -34.015353,17.47233 -34.015353,17.93641 0,0.46407 2.9381,1.88728 6.52911,3.16269 13.60457,4.83192 26.736973,21.67292 28.831563,36.97366 0.74576,5.44772 -0.50124,14.47162 -2.84319,20.57465 -0.86533,2.255 -0.702,2.25644 3.62149,0.0317 2.49023,-1.28137 12.9277,-7.54836 23.19436,-13.92664 z m 162.86303,-37.67974 c 4.23453,-6.02642 11.136967,-17.68914 11.136967,-18.8176 0,-0.37186 -4.95,1.64278 -10.999997,4.47696 -22.05165,10.33029 -41.43896,15.11752 -73,18.02558 l -18.0000003,1.65854 43.4406403,0.1616 43.44064,0.16158 z m -65.26465,-7.04843 c 28.59028,-3.72197 58.39464,-13.07207 77.995167,-24.46831 7.30254,-4.245883 8.64108,-5.668493 10.81816,-11.497663 6.11772,-16.38034 7.79829,-37.75919 4.36554,-55.53498 -1.50606,-7.79883 -7.96097,-28.4902501 -9.40318,-30.1421901 -0.17202,-0.19703 -5.35155,2.30615 -11.51008,5.5626301 -13.084597,6.91881 -33.255067,14.14294 -49.233117,17.63304 -15.8632,3.46501 -56.8351203,3.48665 -73.9642,0.0391 -15.55348,-3.13047 -38.44488,-10.55014 -52.34851,-16.96744 l -11.01517,-5.0841201 -2.10997,4.9208601 c -9.51584,22.19278 -12.43932,46.5808 -7.75212,64.66928 1.70105,6.56459 4.85725,14.5992 6.52049,16.59896 0.15892,0.19107 6.23261,-2.47157 13.49711,-5.91697 11.55901,-5.48219 14.54796,-6.33544 23.93856,-6.83376 13.6708,-0.72544 21.76118,2.42208 30.64893,11.9238 7.82261,8.363003 11.2486297,16.167103 12.2285197,27.855243 l 0.77892,9.29098 h 10.405 c 5.72275,0 17.4857203,-0.92178 26.1399503,-2.04842 z M 46.884393,19.141427 c 19.35768,-3.3757 42.4987,-11.7326101 55.880297,-20.1800401 l 5.26285,-3.3223 -3.63659,-4.92128 C 98.746103,-16.921183 93.134393,-22.700573 85.355793,-28.886103 l -7.142,-5.6793 -9.66461,4.46533 c -24.99181,11.54692 -54.72979,14.58465 -84.05808,8.58652 -8.3074,-1.699 -28.38408,-8.82414 -30.59331,-10.85744 -2.7658,-2.54556 -6.6068,-0.83943 -14.01208,6.22401 -4.26109,4.06439 -10.24096,10.94456 -13.28858,15.28925 l -5.54115,7.8994399 9.05424,4.55742 c 15.41732,7.76025 41.10783,15.6970201 60.3875697,18.6560001 9.32029999,1.43044 45.9456403,0.70705 56.3866003,-1.1137 z m -13.56125,-49.30193 c 10.54995,-1.84762 27.62929,-6.96613 32.68467,-9.79526 1.96106,-1.09746 1.49676,-1.69344 -3.17683,-4.07773 -3.01047,-1.53582 -10.76699,-4.37542 -17.23672,-6.31021 -15.39296,-4.60332 -44.1825903,-5.94629 -57.98293,-2.70478 -9.54427,2.24182 -27.7802,9.85281 -27.7802,11.5944 0,0.58246 3.15,2.22162 7,3.64258 25.3496397,9.35605 44.30317,11.53696 66.49201,7.651 z"
       id="path2011"
       inkscape:export-filename="/home/maritza88/Documents/development/korektiva2.0/src/assets/images/pattern.png"
       inkscape:export-xdpi="300"
       inkscape:export-ydpi="300" />
  </g>
</svg>
